<?xml version="1.0" encoding="UTF-8"?>
<!DOCTYPE svg PUBLIC "-//W3C//DTD SVG 1.1//EN" "http://www.w3.org/Graphics/SVG/1.1/DTD/svg11.dtd">
<svg xmlns="http://www.w3.org/2000/svg" version="1.1" width="512px" height="182px" style="shape-rendering:geometricPrecision; text-rendering:geometricPrecision; image-rendering:optimizeQuality; fill-rule:evenodd; clip-rule:evenodd" xmlns:xlink="http://www.w3.org/1999/xlink">
<g><path style="opacity:0.873" fill="#fefffe" d="M 47.5,29.5 C 57.0294,27.9147 62.6961,31.748 64.5,41C 63.7406,51.2707 58.7406,58.7707 49.5,63.5C 48.3691,65.0745 48.2025,66.7412 49,68.5C 55.6821,60.1332 63.8487,58.2999 73.5,63C 75.6166,64.7309 77.1166,66.8976 78,69.5C 79.6681,76.1833 81.3348,82.85 83,89.5C 86.9087,82.1153 90.2421,74.4486 93,66.5C 96.8696,56.3107 102.703,47.4773 110.5,40C 125.636,32.9046 133.969,37.7379 135.5,54.5C 133.089,79.0311 130.422,103.531 127.5,128C 127.474,136.935 130.474,144.602 136.5,151C 129.759,155.068 124.925,153.235 122,145.5C 120.147,138.961 118.981,132.294 118.5,125.5C 120.709,102.658 123.043,79.8249 125.5,57C 125.963,51.6525 124.963,46.6525 122.5,42C 119.983,41.7434 117.65,42.4101 115.5,44C 111.975,47.5569 108.809,51.3903 106,55.5C 99.2781,69.6671 92.9448,84.0004 87,98.5C 82.5737,102.554 78.5737,102.221 75,97.5C 72.7918,87.0241 70.1251,76.6908 67,66.5C 66.2613,65.4258 65.2613,64.7591 64,64.5C 56.7873,67.4144 51.9539,72.5811 49.5,80C 53.9221,96.4352 54.4221,112.935 51,129.5C 49.4597,133.419 47.2931,136.919 44.5,140C 36.6951,143.775 31.8618,141.609 30,133.5C 28.0394,115.929 31.0394,99.2628 39,83.5C 39.7809,78.6947 39.2809,74.028 37.5,69.5C 30.0083,72.5014 23.8416,77.168 19,83.5C 18.0153,85.3659 17.5153,87.3659 17.5,89.5C 17.7063,92.3356 18.373,95.0023 19.5,97.5C 14.4024,98.5705 11.2357,96.5705 10,91.5C 8.64189,86.0066 9.80855,81.1733 13.5,77C 21.3381,72.2467 29.3381,67.7467 37.5,63.5C 38.236,55.8185 39.0693,48.1519 40,40.5C 41.0425,35.7207 43.5425,32.054 47.5,29.5 Z M 51.5,34.5 C 52.9778,34.238 54.3112,34.5713 55.5,35.5C 58.9884,44.3683 56.6551,51.3683 48.5,56.5C 46.7548,48.7514 47.7548,41.418 51.5,34.5 Z M 40.5,95.5 C 41.1174,95.6107 41.6174,95.944 42,96.5C 44.2506,106.81 44.5839,117.143 43,127.5C 42.258,130.657 40.758,133.323 38.5,135.5C 36.7675,131.76 35.7675,127.76 35.5,123.5C 36.1406,113.965 37.8073,104.632 40.5,95.5 Z"/></g>
<g><path style="opacity:0.868" fill="#fefffe" d="M 257.5,29.5 C 270.334,28.8367 275.501,34.8367 273,47.5C 270.48,54.6882 265.813,60.0216 259,63.5C 258.333,65.1667 258.333,66.8333 259,68.5C 260.99,64.5095 264.157,62.0095 268.5,61C 277.847,58.4237 284.347,61.5904 288,70.5C 289.14,77.0443 290.806,83.3777 293,89.5C 298.622,73.6139 305.956,58.6139 315,44.5C 322.882,35.323 331.549,34.323 341,41.5C 343.931,46.947 345.097,52.7803 344.5,59C 342.021,81.9775 339.688,104.978 337.5,128C 337.319,135.113 339.153,141.613 343,147.5C 345.768,148.208 346.601,149.708 345.5,152C 338.331,154.571 333.498,152.071 331,144.5C 328.64,134.97 327.973,125.303 329,115.5C 331.002,95.483 333.169,75.483 335.5,55.5C 335.324,52.1182 334.824,48.7848 334,45.5C 332.529,41.4541 330.029,40.6207 326.5,43C 321.917,46.9123 318.083,51.4123 315,56.5C 308.278,70.6671 301.945,85.0004 296,99.5C 290.949,102.69 286.949,101.69 284,96.5C 282.057,88.5679 280.39,80.5679 279,72.5C 278.275,70.0506 277.275,67.7173 276,65.5C 274.612,64.4464 273.112,64.2797 271.5,65C 265.295,68.7699 261.295,74.1033 259.5,81C 261.432,91.0899 262.765,101.257 263.5,111.5C 264.062,122.447 260.728,131.947 253.5,140C 244.25,143.765 239.417,140.599 239,130.5C 237.961,113.192 241.461,96.8591 249.5,81.5C 248.893,77.5107 248.227,73.5107 247.5,69.5C 240.37,72.48 234.203,76.8133 229,82.5C 225.534,87.1671 225.701,91.6671 229.5,96C 227.326,97.7971 224.993,97.9638 222.5,96.5C 216.818,89.0703 217.484,82.237 224.5,76C 231.758,71.4529 239.258,67.2862 247,63.5C 247.501,56.4841 248.168,49.4841 249,42.5C 249.858,36.7606 252.692,32.4273 257.5,29.5 Z M 262.5,33.5 C 264.173,34.343 265.34,35.6763 266,37.5C 267.991,45.8461 265.324,52.1794 258,56.5C 257.333,51.5 257.333,46.5 258,41.5C 258.754,38.3156 260.254,35.6489 262.5,33.5 Z M 250.5,93.5 C 253.136,103.888 253.969,114.555 253,125.5C 252.171,129.161 250.671,132.495 248.5,135.5C 246.931,134.286 246.098,132.619 246,130.5C 244.888,117.843 246.388,105.509 250.5,93.5 Z"/></g>
<g><path style="opacity:0.862" fill="#fefffe" d="M 391.5,69.5 C 395.57,68.508 397.57,70.008 397.5,74C 393.223,92.4817 391.89,111.148 393.5,130C 393.891,133.177 395.057,136.01 397,138.5C 400.427,135.744 403.093,132.41 405,128.5C 409.873,116.379 414.04,104.046 417.5,91.5C 419.5,90.1667 421.5,90.1667 423.5,91.5C 424.332,101.817 424.832,112.151 425,122.5C 425.29,124.044 425.956,125.377 427,126.5C 430.37,123.465 433.37,120.132 436,116.5C 439.557,109.819 442.724,102.986 445.5,96C 440.79,92.649 439.456,88.3156 441.5,83C 442.833,82.3333 444.167,82.3333 445.5,83C 447.563,85.5106 449.063,88.344 450,91.5C 453.952,91.9787 457.785,91.1453 461.5,89C 469.618,83.5268 477.452,77.6934 485,71.5C 488.107,72.7958 489.107,75.1291 488,78.5C 477.635,94.7006 467.469,111.034 457.5,127.5C 463.494,132.95 470.16,133.784 477.5,130C 487.205,120.612 495.038,109.778 501,97.5C 502.076,95.4232 503.743,94.0899 506,93.5C 507.732,93.7336 508.566,94.7336 508.5,96.5C 502.81,109.385 495.477,121.218 486.5,132C 480.155,136.296 473.155,137.63 465.5,136C 459.684,133.3 453.684,132.3 447.5,133C 445.376,130.592 445.543,128.092 448,125.5C 455.425,115.236 462.258,104.569 468.5,93.5C 468.167,93.1667 467.833,92.8333 467.5,92.5C 462.351,95.9948 456.684,97.6615 450.5,97.5C 447.401,110.535 441.068,121.701 431.5,131C 422.204,133.758 416.704,130.258 415,120.5C 412.559,129.931 407.392,137.431 399.5,143C 394.848,144.193 390.681,143.36 387,140.5C 384.867,136.768 383.534,132.768 383,128.5C 382.83,122.804 382.33,117.138 381.5,111.5C 377.391,117.451 373.058,123.284 368.5,129C 361.436,131.886 355.936,130.052 352,123.5C 348.602,109.684 350.602,96.6839 358,84.5C 367.036,72.5873 376.036,72.5873 385,84.5C 387.068,79.4638 389.235,74.4638 391.5,69.5 Z M 372.5,80.5 C 373.675,80.281 374.675,80.6143 375.5,81.5C 377.214,84.2988 378.547,87.2988 379.5,90.5C 380.737,91.2807 381.737,92.2807 382.5,93.5C 379.527,100.779 376.027,107.779 372,114.5C 369.868,118.431 367.035,121.764 363.5,124.5C 358.854,108.397 361.854,93.7304 372.5,80.5 Z"/></g>
<g><path style="opacity:0.799" fill="#fefffe" d="M 419.5,73.5 C 426.158,72.3445 428.158,74.8445 425.5,81C 419.224,82.0477 417.224,79.5477 419.5,73.5 Z"/></g>
<g><path style="opacity:0.863" fill="#fefffe" d="M 155.5,126.5 C 164.437,125.603 166.771,129.103 162.5,137C 153.428,138.047 151.095,134.547 155.5,126.5 Z"/></g>
</svg>
