<svg xmlns="http://www.w3.org/2000/svg" xmlns:xlink="http://www.w3.org/1999/xlink" width="512" zoomAndPan="magnify" viewBox="0 0 384 383.999986" height="512" preserveAspectRatio="xMidYMid meet" version="1.0"><defs><g/></defs><g fill="#ffffff" fill-opacity="1"><g transform="translate(7.596442, 229.569477)"><g><path d="M 94.421875 9.765625 C 94.753906 9.929688 94.878906 10.222656 94.796875 10.640625 C 94.710938 11.054688 94.503906 11.347656 94.171875 11.515625 C 93.078125 12.179688 92.113281 12.515625 91.28125 12.515625 C 90.445312 12.515625 89.53125 12.222656 88.53125 11.640625 C 87.445312 10.972656 86.488281 9.929688 85.65625 8.515625 C 84.394531 6.515625 83.515625 4.132812 83.015625 1.375 C 82.515625 -1.625 82.265625 -4.628906 82.265625 -7.640625 C 82.265625 -8.804688 82.347656 -10.472656 82.515625 -12.640625 C 82.515625 -13.316406 82.554688 -14.113281 82.640625 -15.03125 C 82.972656 -21.875 84.144531 -32.347656 86.15625 -46.453125 C 86.65625 -50.796875 86.988281 -54.050781 87.15625 -56.21875 C 87.320312 -57.300781 87.40625 -58.890625 87.40625 -60.984375 C 87.40625 -63.734375 87.070312 -66.238281 86.40625 -68.5 C 86.320312 -68.664062 85.945312 -69.457031 85.28125 -70.875 C 84.9375 -71.375 84.429688 -71.625 83.765625 -71.625 L 83.265625 -71.625 C 81.929688 -71.457031 80.515625 -70.75 79.015625 -69.5 C 77.429688 -68.25 75.84375 -66.535156 74.25 -64.359375 C 71.25 -60.273438 68.703125 -55.6875 66.609375 -50.59375 L 60.984375 -36.5625 C 60.648438 -35.644531 60.109375 -34.328125 59.359375 -32.609375 C 58.609375 -30.898438 58.144531 -29.878906 57.96875 -29.546875 C 57.21875 -27.710938 55.84375 -26.796875 53.84375 -26.796875 C 51.507812 -26.796875 49.921875 -27.796875 49.078125 -29.796875 C 48.242188 -32.304688 47.703125 -34.226562 47.453125 -35.5625 C 47.285156 -36.476562 47.078125 -37.8125 46.828125 -39.5625 C 46.578125 -41.320312 46.367188 -42.660156 46.203125 -43.578125 C 45.785156 -45.660156 45.285156 -47.75 44.703125 -49.84375 C 44.367188 -50.84375 43.785156 -51.96875 42.953125 -53.21875 C 42.453125 -53.96875 41.742188 -54.34375 40.828125 -54.34375 C 40.316406 -54.34375 39.9375 -54.300781 39.6875 -54.21875 C 38.4375 -53.882812 37.1875 -53.175781 35.9375 -52.09375 C 34.601562 -51.007812 32.472656 -48.171875 29.546875 -43.578125 C 29.546875 -43.328125 29.566406 -42.929688 29.609375 -42.390625 C 29.648438 -41.847656 29.710938 -41.492188 29.796875 -41.328125 C 30.128906 -38.816406 30.585938 -35.890625 31.171875 -32.546875 C 31.765625 -29.210938 32.164062 -26.601562 32.375 -24.71875 C 32.582031 -22.84375 32.6875 -20.738281 32.6875 -18.40625 C 32.6875 -15.320312 32.394531 -12.359375 31.8125 -9.515625 C 30.800781 -5.671875 29.460938 -2.539062 27.796875 -0.125 C 26.128906 2.375 23.664062 3.625 20.40625 3.625 C 18.738281 3.457031 17.570312 2.707031 16.90625 1.375 C 16.738281 1.039062 16.363281 0.0390625 15.78125 -1.625 C 15.195312 -4.050781 14.90625 -6.640625 14.90625 -9.390625 C 14.90625 -11.304688 15.03125 -13.1875 15.28125 -15.03125 C 16.03125 -23.289062 18.15625 -31.09375 21.65625 -38.4375 L 22.921875 -40.578125 C 22.921875 -40.742188 22.898438 -40.910156 22.859375 -41.078125 C 22.816406 -41.242188 22.796875 -41.410156 22.796875 -41.578125 C 22.546875 -42.910156 22.289062 -46.125 22.03125 -51.21875 L 20.28125 -50.46875 C 8.175781 -44.457031 3.335938 -38.40625 5.765625 -32.3125 C 5.847656 -32.0625 6.054688 -31.742188 6.390625 -31.359375 C 6.722656 -30.984375 6.929688 -30.710938 7.015625 -30.546875 C 7.015625 -30.296875 6.929688 -30.003906 6.765625 -29.671875 C 6.597656 -29.503906 6.429688 -29.421875 6.265625 -29.421875 C 3.671875 -29.421875 1.957031 -30.46875 1.125 -32.5625 C 0.375 -34.394531 0 -35.976562 0 -37.3125 C 0 -39.988281 1.207031 -42.347656 3.625 -44.390625 C 6.050781 -46.429688 11.394531 -49.5 19.65625 -53.59375 C 20.15625 -53.757812 20.90625 -54.09375 21.90625 -54.59375 C 21.570312 -58.269531 21.695312 -62.488281 22.28125 -67.25 C 22.539062 -70.414062 23.421875 -73.378906 24.921875 -76.140625 C 26.085938 -78.140625 27.753906 -79.390625 29.921875 -79.890625 C 30.085938 -79.890625 30.296875 -79.890625 30.546875 -79.890625 C 30.796875 -79.890625 31.066406 -79.890625 31.359375 -79.890625 C 31.660156 -79.890625 31.894531 -79.890625 32.0625 -79.890625 C 32.976562 -79.890625 33.6875 -79.804688 34.1875 -79.640625 C 37.601562 -78.722656 39.648438 -76.550781 40.328125 -73.125 C 40.410156 -72.707031 40.453125 -72.125 40.453125 -71.375 C 40.273438 -68.707031 39.894531 -66.578125 39.3125 -64.984375 C 38.3125 -61.898438 34.765625 -58.394531 28.671875 -54.46875 L 29.046875 -49.34375 C 31.140625 -52.175781 32.5625 -53.882812 33.3125 -54.46875 C 36.0625 -56.300781 38.941406 -57.09375 41.953125 -56.84375 C 45.453125 -56.59375 48.082031 -54.925781 49.84375 -51.84375 C 50.925781 -50 51.757812 -47.617188 52.34375 -44.703125 C 52.925781 -41.109375 53.34375 -38.644531 53.59375 -37.3125 C 53.675781 -36.644531 53.925781 -35.976562 54.34375 -35.3125 C 54.507812 -35.0625 54.800781 -34.851562 55.21875 -34.6875 C 55.46875 -34.769531 55.59375 -34.851562 55.59375 -34.9375 C 55.675781 -35.101562 55.90625 -35.519531 56.28125 -36.1875 C 56.65625 -36.851562 56.925781 -37.394531 57.09375 -37.8125 L 62.359375 -50.84375 C 64.441406 -56.1875 66.738281 -60.691406 69.25 -64.359375 C 70.75 -66.535156 71.914062 -68.125 72.75 -69.125 C 74.164062 -70.875 76.003906 -72.289062 78.265625 -73.375 C 79.847656 -74.207031 81.429688 -74.625 83.015625 -74.625 C 84.691406 -74.625 86.28125 -74.25 87.78125 -73.5 C 89.78125 -72.75 91.195312 -71.25 92.03125 -69 C 93.113281 -66.570312 93.65625 -64.273438 93.65625 -62.109375 L 93.28125 -51.34375 C 93.03125 -48.914062 92.59375 -45.425781 91.96875 -40.875 C 91.34375 -36.332031 90.945312 -33.1875 90.78125 -31.4375 C 90.195312 -26.425781 89.40625 -18.910156 88.40625 -8.890625 C 88.320312 -8.222656 88.28125 -7.304688 88.28125 -6.140625 C 88.28125 -4.046875 88.570312 -1.539062 89.15625 1.375 C 90.070312 5.632812 91.828125 8.429688 94.421875 9.765625 Z M 26.296875 -15.40625 C 26.296875 -17.15625 25.546875 -23.207031 24.046875 -33.5625 C 23.296875 -31.96875 22.878906 -30.921875 22.796875 -30.421875 C 20.203125 -23.410156 19.03125 -15.773438 19.28125 -7.515625 C 19.28125 -7.015625 19.320312 -6.472656 19.40625 -5.890625 C 19.488281 -5.304688 19.59375 -4.65625 19.71875 -3.9375 C 19.84375 -3.226562 19.945312 -2.664062 20.03125 -2.25 C 20.363281 -1.082031 20.863281 -0.375 21.53125 -0.125 C 21.695312 0.0390625 22.007812 -0.0625 22.46875 -0.4375 C 22.9375 -0.8125 23.253906 -1.207031 23.421875 -1.625 C 24.671875 -4.300781 25.460938 -6.722656 25.796875 -8.890625 C 26.128906 -11.722656 26.296875 -13.894531 26.296875 -15.40625 Z M 28.296875 -69.25 C 27.960938 -67.15625 28.003906 -63.609375 28.421875 -58.609375 C 32.765625 -62.023438 35.269531 -65.28125 35.9375 -68.375 C 36.101562 -69.289062 36.101562 -70.625 35.9375 -72.375 C 35.769531 -73.375 35.601562 -74.164062 35.4375 -74.75 C 35.351562 -75.25 34.976562 -75.835938 34.3125 -76.515625 C 33.894531 -77.179688 33.226562 -77.429688 32.3125 -77.265625 C 31.644531 -77.097656 31.222656 -76.929688 31.046875 -76.765625 C 29.628906 -74.921875 28.710938 -72.414062 28.296875 -69.25 Z M 28.296875 -69.25 "/></g></g></g><g fill="#ffffff" fill-opacity="1"><g transform="translate(107.39612, 229.569477)"><g><path d="M 9.515625 -0.5 C 8.679688 -1.082031 8.242188 -2.082031 8.203125 -3.5 C 8.160156 -4.925781 8.554688 -5.972656 9.390625 -6.640625 C 9.804688 -7.140625 10.222656 -7.390625 10.640625 -7.390625 C 12.472656 -7.640625 13.9375 -7.347656 15.03125 -6.515625 C 16.03125 -5.847656 16.320312 -4.507812 15.90625 -2.5 C 15.40625 -0.832031 14.546875 0.164062 13.328125 0.5 C 12.117188 0.832031 10.847656 0.5 9.515625 -0.5 Z M 9.515625 -0.5 "/></g></g></g><g fill="#ffffff" fill-opacity="1"><g transform="translate(129.685123, 229.569477)"><g/></g></g><g fill="#ffffff" fill-opacity="1"><g transform="translate(164.746504, 229.569477)"><g><path d="M 94.421875 9.765625 C 94.753906 9.929688 94.878906 10.222656 94.796875 10.640625 C 94.710938 11.054688 94.503906 11.347656 94.171875 11.515625 C 93.078125 12.179688 92.113281 12.515625 91.28125 12.515625 C 90.445312 12.515625 89.53125 12.222656 88.53125 11.640625 C 87.445312 10.972656 86.488281 9.929688 85.65625 8.515625 C 84.394531 6.515625 83.515625 4.132812 83.015625 1.375 C 82.515625 -1.625 82.265625 -4.628906 82.265625 -7.640625 C 82.265625 -8.804688 82.347656 -10.472656 82.515625 -12.640625 C 82.515625 -13.316406 82.554688 -14.113281 82.640625 -15.03125 C 82.972656 -21.875 84.144531 -32.347656 86.15625 -46.453125 C 86.65625 -50.796875 86.988281 -54.050781 87.15625 -56.21875 C 87.320312 -57.300781 87.40625 -58.890625 87.40625 -60.984375 C 87.40625 -63.734375 87.070312 -66.238281 86.40625 -68.5 C 86.320312 -68.664062 85.945312 -69.457031 85.28125 -70.875 C 84.9375 -71.375 84.429688 -71.625 83.765625 -71.625 L 83.265625 -71.625 C 81.929688 -71.457031 80.515625 -70.75 79.015625 -69.5 C 77.429688 -68.25 75.84375 -66.535156 74.25 -64.359375 C 71.25 -60.273438 68.703125 -55.6875 66.609375 -50.59375 L 60.984375 -36.5625 C 60.648438 -35.644531 60.109375 -34.328125 59.359375 -32.609375 C 58.609375 -30.898438 58.144531 -29.878906 57.96875 -29.546875 C 57.21875 -27.710938 55.84375 -26.796875 53.84375 -26.796875 C 51.507812 -26.796875 49.921875 -27.796875 49.078125 -29.796875 C 48.242188 -32.304688 47.703125 -34.226562 47.453125 -35.5625 C 47.285156 -36.476562 47.078125 -37.8125 46.828125 -39.5625 C 46.578125 -41.320312 46.367188 -42.660156 46.203125 -43.578125 C 45.785156 -45.660156 45.285156 -47.75 44.703125 -49.84375 C 44.367188 -50.84375 43.785156 -51.96875 42.953125 -53.21875 C 42.453125 -53.96875 41.742188 -54.34375 40.828125 -54.34375 C 40.316406 -54.34375 39.9375 -54.300781 39.6875 -54.21875 C 38.4375 -53.882812 37.1875 -53.175781 35.9375 -52.09375 C 34.601562 -51.007812 32.472656 -48.171875 29.546875 -43.578125 C 29.546875 -43.328125 29.566406 -42.929688 29.609375 -42.390625 C 29.648438 -41.847656 29.710938 -41.492188 29.796875 -41.328125 C 30.128906 -38.816406 30.585938 -35.890625 31.171875 -32.546875 C 31.765625 -29.210938 32.164062 -26.601562 32.375 -24.71875 C 32.582031 -22.84375 32.6875 -20.738281 32.6875 -18.40625 C 32.6875 -15.320312 32.394531 -12.359375 31.8125 -9.515625 C 30.800781 -5.671875 29.460938 -2.539062 27.796875 -0.125 C 26.128906 2.375 23.664062 3.625 20.40625 3.625 C 18.738281 3.457031 17.570312 2.707031 16.90625 1.375 C 16.738281 1.039062 16.363281 0.0390625 15.78125 -1.625 C 15.195312 -4.050781 14.90625 -6.640625 14.90625 -9.390625 C 14.90625 -11.304688 15.03125 -13.1875 15.28125 -15.03125 C 16.03125 -23.289062 18.15625 -31.09375 21.65625 -38.4375 L 22.921875 -40.578125 C 22.921875 -40.742188 22.898438 -40.910156 22.859375 -41.078125 C 22.816406 -41.242188 22.796875 -41.410156 22.796875 -41.578125 C 22.546875 -42.910156 22.289062 -46.125 22.03125 -51.21875 L 20.28125 -50.46875 C 8.175781 -44.457031 3.335938 -38.40625 5.765625 -32.3125 C 5.847656 -32.0625 6.054688 -31.742188 6.390625 -31.359375 C 6.722656 -30.984375 6.929688 -30.710938 7.015625 -30.546875 C 7.015625 -30.296875 6.929688 -30.003906 6.765625 -29.671875 C 6.597656 -29.503906 6.429688 -29.421875 6.265625 -29.421875 C 3.671875 -29.421875 1.957031 -30.46875 1.125 -32.5625 C 0.375 -34.394531 0 -35.976562 0 -37.3125 C 0 -39.988281 1.207031 -42.347656 3.625 -44.390625 C 6.050781 -46.429688 11.394531 -49.5 19.65625 -53.59375 C 20.15625 -53.757812 20.90625 -54.09375 21.90625 -54.59375 C 21.570312 -58.269531 21.695312 -62.488281 22.28125 -67.25 C 22.539062 -70.414062 23.421875 -73.378906 24.921875 -76.140625 C 26.085938 -78.140625 27.753906 -79.390625 29.921875 -79.890625 C 30.085938 -79.890625 30.296875 -79.890625 30.546875 -79.890625 C 30.796875 -79.890625 31.066406 -79.890625 31.359375 -79.890625 C 31.660156 -79.890625 31.894531 -79.890625 32.0625 -79.890625 C 32.976562 -79.890625 33.6875 -79.804688 34.1875 -79.640625 C 37.601562 -78.722656 39.648438 -76.550781 40.328125 -73.125 C 40.410156 -72.707031 40.453125 -72.125 40.453125 -71.375 C 40.273438 -68.707031 39.894531 -66.578125 39.3125 -64.984375 C 38.3125 -61.898438 34.765625 -58.394531 28.671875 -54.46875 L 29.046875 -49.34375 C 31.140625 -52.175781 32.5625 -53.882812 33.3125 -54.46875 C 36.0625 -56.300781 38.941406 -57.09375 41.953125 -56.84375 C 45.453125 -56.59375 48.082031 -54.925781 49.84375 -51.84375 C 50.925781 -50 51.757812 -47.617188 52.34375 -44.703125 C 52.925781 -41.109375 53.34375 -38.644531 53.59375 -37.3125 C 53.675781 -36.644531 53.925781 -35.976562 54.34375 -35.3125 C 54.507812 -35.0625 54.800781 -34.851562 55.21875 -34.6875 C 55.46875 -34.769531 55.59375 -34.851562 55.59375 -34.9375 C 55.675781 -35.101562 55.90625 -35.519531 56.28125 -36.1875 C 56.65625 -36.851562 56.925781 -37.394531 57.09375 -37.8125 L 62.359375 -50.84375 C 64.441406 -56.1875 66.738281 -60.691406 69.25 -64.359375 C 70.75 -66.535156 71.914062 -68.125 72.75 -69.125 C 74.164062 -70.875 76.003906 -72.289062 78.265625 -73.375 C 79.847656 -74.207031 81.429688 -74.625 83.015625 -74.625 C 84.691406 -74.625 86.28125 -74.25 87.78125 -73.5 C 89.78125 -72.75 91.195312 -71.25 92.03125 -69 C 93.113281 -66.570312 93.65625 -64.273438 93.65625 -62.109375 L 93.28125 -51.34375 C 93.03125 -48.914062 92.59375 -45.425781 91.96875 -40.875 C 91.34375 -36.332031 90.945312 -33.1875 90.78125 -31.4375 C 90.195312 -26.425781 89.40625 -18.910156 88.40625 -8.890625 C 88.320312 -8.222656 88.28125 -7.304688 88.28125 -6.140625 C 88.28125 -4.046875 88.570312 -1.539062 89.15625 1.375 C 90.070312 5.632812 91.828125 8.429688 94.421875 9.765625 Z M 26.296875 -15.40625 C 26.296875 -17.15625 25.546875 -23.207031 24.046875 -33.5625 C 23.296875 -31.96875 22.878906 -30.921875 22.796875 -30.421875 C 20.203125 -23.410156 19.03125 -15.773438 19.28125 -7.515625 C 19.28125 -7.015625 19.320312 -6.472656 19.40625 -5.890625 C 19.488281 -5.304688 19.59375 -4.65625 19.71875 -3.9375 C 19.84375 -3.226562 19.945312 -2.664062 20.03125 -2.25 C 20.363281 -1.082031 20.863281 -0.375 21.53125 -0.125 C 21.695312 0.0390625 22.007812 -0.0625 22.46875 -0.4375 C 22.9375 -0.8125 23.253906 -1.207031 23.421875 -1.625 C 24.671875 -4.300781 25.460938 -6.722656 25.796875 -8.890625 C 26.128906 -11.722656 26.296875 -13.894531 26.296875 -15.40625 Z M 28.296875 -69.25 C 27.960938 -67.15625 28.003906 -63.609375 28.421875 -58.609375 C 32.765625 -62.023438 35.269531 -65.28125 35.9375 -68.375 C 36.101562 -69.289062 36.101562 -70.625 35.9375 -72.375 C 35.769531 -73.375 35.601562 -74.164062 35.4375 -74.75 C 35.351562 -75.25 34.976562 -75.835938 34.3125 -76.515625 C 33.894531 -77.179688 33.226562 -77.429688 32.3125 -77.265625 C 31.644531 -77.097656 31.222656 -76.929688 31.046875 -76.765625 C 29.628906 -74.921875 28.710938 -72.414062 28.296875 -69.25 Z M 28.296875 -69.25 "/></g></g></g><g fill="#ffffff" fill-opacity="1"><g transform="translate(264.546182, 229.569477)"><g><path d="M 32.9375 5.015625 C 29.425781 5.265625 26.921875 3.84375 25.421875 0.75 C 24.671875 -0.582031 24.171875 -2.082031 23.921875 -3.75 C 23.171875 -7.257812 22.835938 -10.644531 22.921875 -13.90625 C 22.921875 -14.320312 22.941406 -14.90625 22.984375 -15.65625 C 23.023438 -16.40625 23.023438 -17.09375 22.984375 -17.71875 C 22.941406 -18.34375 22.796875 -18.90625 22.546875 -19.40625 C 22.546875 -19.570312 22.457031 -19.65625 22.28125 -19.65625 C 22.03125 -19.820312 21.820312 -19.820312 21.65625 -19.65625 C 21.570312 -19.570312 21.363281 -19.34375 21.03125 -18.96875 C 20.695312 -18.59375 20.445312 -18.28125 20.28125 -18.03125 C 19.695312 -17.113281 18.90625 -15.773438 17.90625 -14.015625 C 16.90625 -12.265625 16.238281 -11.140625 15.90625 -10.640625 C 14.988281 -9.222656 13.984375 -7.972656 12.890625 -6.890625 C 11.554688 -5.390625 9.765625 -4.722656 7.515625 -4.890625 C 4.335938 -5.304688 2 -6.847656 0.5 -9.515625 C -0.414062 -11.265625 -0.914062 -12.976562 -1 -14.65625 C -1.414062 -19.738281 -1.125 -23.992188 -0.125 -27.421875 C 1.289062 -32.347656 3.046875 -36.3125 5.140625 -39.3125 C 6.472656 -40.988281 7.554688 -42.203125 8.390625 -42.953125 C 11.054688 -44.953125 13.785156 -45.660156 16.578125 -45.078125 C 19.378906 -44.492188 21.492188 -43.035156 22.921875 -40.703125 C 23.253906 -39.941406 23.710938 -39.1875 24.296875 -38.4375 C 24.378906 -38.351562 24.546875 -38.332031 24.796875 -38.375 C 25.046875 -38.414062 25.210938 -38.476562 25.296875 -38.5625 L 26.046875 -40.453125 C 27.460938 -44.867188 28.460938 -47.578125 29.046875 -48.578125 C 29.628906 -49.503906 30.550781 -49.925781 31.8125 -49.84375 C 33.5625 -49.675781 34.226562 -48.835938 33.8125 -47.328125 C 33.726562 -46.828125 33.519531 -45.910156 33.1875 -44.578125 C 32.851562 -43.242188 32.644531 -42.242188 32.5625 -41.578125 C 30.300781 -29.390625 29.421875 -18.617188 29.921875 -9.265625 C 30.003906 -7.179688 30.421875 -4.675781 31.171875 -1.75 C 31.265625 -1.164062 31.519531 -0.5 31.9375 0.25 C 32.6875 1.832031 33.6875 2.082031 34.9375 1 L 37.0625 -1.375 C 38.5625 -3.207031 39.898438 -5.585938 41.078125 -8.515625 C 41.910156 -10.429688 43.140625 -13.769531 44.765625 -18.53125 C 46.390625 -23.289062 47.328125 -26.460938 47.578125 -28.046875 C 48.242188 -29.378906 48.660156 -30.171875 48.828125 -30.421875 C 49.171875 -31.015625 49.800781 -31.222656 50.71875 -31.046875 C 51.300781 -30.960938 51.675781 -30.628906 51.84375 -30.046875 C 51.84375 -29.046875 51.757812 -28.335938 51.59375 -27.921875 C 51.007812 -25.671875 49.796875 -21.875 47.953125 -16.53125 C 46.117188 -11.1875 44.742188 -7.472656 43.828125 -5.390625 C 42.492188 -2.378906 40.738281 0.125 38.5625 2.125 C 36.976562 3.800781 35.101562 4.765625 32.9375 5.015625 Z M 10.265625 -9.515625 C 10.929688 -10.179688 11.515625 -10.890625 12.015625 -11.640625 C 15.773438 -16.984375 19.328125 -23.453125 22.671875 -31.046875 C 23.253906 -32.472656 22.875 -33.476562 21.53125 -34.0625 C 21.03125 -34.3125 20.613281 -34.894531 20.28125 -35.8125 C 20.28125 -35.894531 20.070312 -36.601562 19.65625 -37.9375 C 19.238281 -39.269531 18.820312 -40.234375 18.40625 -40.828125 C 17.070312 -42.992188 15.613281 -43.203125 14.03125 -41.453125 C 12.9375 -40.359375 12.140625 -39.351562 11.640625 -38.4375 C 8.140625 -31.84375 6.222656 -25 5.890625 -17.90625 C 5.890625 -16.65625 5.929688 -15.738281 6.015625 -15.15625 C 6.015625 -14.40625 6.054688 -13.863281 6.140625 -13.53125 C 6.222656 -12.6875 6.429688 -11.640625 6.765625 -10.390625 C 7.597656 -8.054688 8.765625 -7.765625 10.265625 -9.515625 Z M 10.265625 -9.515625 "/></g></g></g><g fill="#ffffff" fill-opacity="1"><g transform="translate(311.378159, 229.569477)"><g><path d="M 5.515625 -4.375 C 4.085938 -4.882812 2.957031 -6.015625 2.125 -7.765625 C 1.125 -9.597656 0.5 -11.851562 0.25 -14.53125 C -0.332031 -19.875 0.0390625 -25.59375 1.375 -31.6875 C 1.789062 -33.519531 3.046875 -34.226562 5.140625 -33.8125 C 6.472656 -33.644531 7.140625 -32.976562 7.140625 -31.8125 C 7.222656 -31.8125 7.265625 -31.179688 7.265625 -29.921875 L 7.140625 -28.046875 L 6.890625 -23.421875 C 6.390625 -20.160156 6.472656 -15.941406 7.140625 -10.765625 C 7.390625 -9.765625 7.765625 -8.765625 8.265625 -7.765625 C 8.347656 -7.429688 8.597656 -7.222656 9.015625 -7.140625 C 9.429688 -7.054688 9.765625 -7.140625 10.015625 -7.390625 C 11.097656 -8.390625 11.890625 -9.140625 12.390625 -9.640625 C 15.316406 -13.066406 17.613281 -16.695312 19.28125 -20.53125 C 19.863281 -21.789062 21.160156 -24.960938 23.171875 -30.046875 C 23.421875 -30.546875 23.878906 -31.300781 24.546875 -32.3125 C 24.710938 -32.5625 25.128906 -32.644531 25.796875 -32.5625 C 26.460938 -32.476562 26.878906 -32.3125 27.046875 -32.0625 C 27.210938 -31.46875 27.296875 -31.128906 27.296875 -31.046875 C 26.796875 -29.460938 25.960938 -27.085938 24.796875 -23.921875 C 22.535156 -17.910156 19.738281 -12.898438 16.40625 -8.890625 C 15.570312 -7.722656 14.613281 -6.640625 13.53125 -5.640625 C 11.4375 -3.628906 8.765625 -3.207031 5.515625 -4.375 Z M 4 -42.203125 C 3.414062 -42.617188 3.101562 -43.328125 3.0625 -44.328125 C 3.019531 -45.328125 3.289062 -46.078125 3.875 -46.578125 C 4.207031 -46.910156 4.503906 -47.078125 4.765625 -47.078125 C 6.097656 -47.242188 7.140625 -47.035156 7.890625 -46.453125 C 8.640625 -45.953125 8.847656 -44.992188 8.515625 -43.578125 C 8.179688 -42.410156 7.578125 -41.703125 6.703125 -41.453125 C 5.828125 -41.203125 4.925781 -41.453125 4 -42.203125 Z M 4 -42.203125 "/></g></g></g><g fill="#ffffff" fill-opacity="1"><g transform="translate(333.667162, 229.569477)"><g><path d="M 21.65625 0 C 19.15625 0 17.28125 -0.289062 16.03125 -0.875 L 11.890625 -2.25 C 8.972656 -3.25 6.722656 -3.332031 5.140625 -2.5 C 4.210938 -2.082031 3.207031 -2.332031 2.125 -3.25 C 1.457031 -3.832031 1.25 -4.460938 1.5 -5.140625 L 2.25 -6.515625 C 3.082031 -7.847656 4.832031 -10.535156 7.5 -14.578125 C 10.175781 -18.628906 12.515625 -22.238281 14.515625 -25.40625 C 16.523438 -28.582031 17.988281 -31.050781 18.90625 -32.8125 C 19.070312 -33.0625 18.945312 -33.394531 18.53125 -33.8125 C 18.53125 -33.894531 18.40625 -33.9375 18.15625 -33.9375 L 15.65625 -32.6875 C 15.238281 -32.519531 14.421875 -32.140625 13.203125 -31.546875 C 11.992188 -30.960938 11.015625 -30.546875 10.265625 -30.296875 C 7.515625 -29.046875 4.550781 -29.253906 1.375 -30.921875 C -1.625 -32.597656 -2.914062 -35.144531 -2.5 -38.5625 C -2.5 -38.976562 -2.289062 -39.332031 -1.875 -39.625 C -1.457031 -39.914062 -1 -40.019531 -0.5 -39.9375 C 0.664062 -39.769531 1.457031 -39.1875 1.875 -38.1875 C 2.125 -37.6875 2.394531 -37.019531 2.6875 -36.1875 C 2.976562 -35.351562 3.164062 -34.8125 3.25 -34.5625 C 3.832031 -32.976562 4.960938 -32.394531 6.640625 -32.8125 C 9.222656 -33.476562 11.5625 -34.476562 13.65625 -35.8125 C 20.332031 -40.070312 25.171875 -43.785156 28.171875 -46.953125 L 29.421875 -47.953125 C 30.085938 -48.453125 30.925781 -48.367188 31.9375 -47.703125 C 32.9375 -47.117188 33.226562 -46.367188 32.8125 -45.453125 C 32.476562 -44.535156 32.019531 -43.578125 31.4375 -42.578125 C 17.90625 -21.117188 10.929688 -10.015625 10.515625 -9.265625 C 9.847656 -7.847656 9.472656 -7.054688 9.390625 -6.890625 C 9.222656 -6.222656 9.304688 -5.722656 9.640625 -5.390625 C 13.566406 -3.128906 17.363281 -2.289062 21.03125 -2.875 C 22.457031 -3.125 23.753906 -3.710938 24.921875 -4.640625 C 27.421875 -6.140625 29.503906 -8.097656 31.171875 -10.515625 C 32.179688 -11.847656 33.9375 -14.394531 36.4375 -18.15625 C 36.851562 -18.738281 38.101562 -20.800781 40.1875 -24.34375 C 42.28125 -27.894531 43.617188 -30.046875 44.203125 -30.796875 C 44.617188 -31.554688 45.410156 -31.851562 46.578125 -31.6875 C 47.492188 -31.34375 47.867188 -30.796875 47.703125 -30.046875 C 47.453125 -29.210938 47.285156 -28.671875 47.203125 -28.421875 C 46.785156 -27.671875 45.828125 -25.957031 44.328125 -23.28125 C 42.828125 -20.613281 41.40625 -18.148438 40.0625 -15.890625 C 38.726562 -13.640625 37.726562 -11.972656 37.0625 -10.890625 C 34.8125 -7.390625 32.390625 -4.71875 29.796875 -2.875 C 27.046875 -0.875 24.332031 0.0820312 21.65625 0 Z M 21.65625 0 "/></g></g></g></svg>